<?xml version="1.0" standalone="no"?>
<!DOCTYPE svg PUBLIC "-//W3C//DTD SVG 20010904//EN"
 "http://www.w3.org/TR/2001/REC-SVG-20010904/DTD/svg10.dtd">
<svg version="1.0" xmlns="http://www.w3.org/2000/svg"
 width="751.000000pt" height="751.000000pt" viewBox="0 0 751.000000 751.000000"
 preserveAspectRatio="xMidYMid meet">
<metadata>
Created by potrace 1.14, written by Peter Selinger 2001-2017
</metadata>
<g transform="translate(0.000000,751.000000) scale(0.100000,-0.100000)"
fill="#000000" stroke="none">
<path d="M1525 6515 c-42 -19 -79 -54 -100 -95 -14 -27 -18 -61 -19 -152 -1
-64 -4 -119 -6 -121 -3 -3 -34 -8 -70 -11 -154 -16 -317 -85 -429 -181 -137
-117 -239 -296 -267 -465 -10 -60 -12 -3689 -2 -3763 17 -130 89 -286 180
-393 95 -111 235 -202 377 -246 l76 -23 2465 -2 c2420 -2 2466 -1 2545 18 286
70 503 285 577 571 l22 83 0 2060 0 2060 -21 82 c-71 273 -272 482 -543 565
l-75 23 -1195 2 c-1163 3 -1197 2 -1278 -17 -45 -11 -96 -27 -112 -35 -17 -9
-32 -15 -35 -15 -3 0 -150 -71 -326 -160 l-321 -160 -194 0 -194 0 0 110 c0
61 1 111 1 113 1 1 -6 20 -15 42 -22 52 -52 83 -101 106 -37 17 -72 19 -475
18 -344 -1 -441 -3 -465 -14z m4566 -789 c2 -113 -2 -1140 -6 -1144 -2 -2
-317 -4 -699 -4 l-695 0 -43 30 c-114 78 -313 165 -468 205 -166 44 -235 52
-430 52 -166 0 -222 -5 -340 -30 -41 -9 -83 -18 -92 -20 -100 -21 -339 -127
-455 -201 l-55 -35 -694 -1 c-382 -1 -697 2 -701 5 -4 5 -8 650 -4 759 1 15
59 17 819 16 449 0 836 3 858 6 90 12 213 64 524 220 l325 163 1077 0 1078 0
1 -21z m-2141 -1461 c75 -15 219 -66 292 -104 305 -156 528 -474 573 -816 7
-58 9 -241 2 -252 -3 -4 -8 -35 -12 -68 -9 -79 -57 -222 -107 -317 -164 -309
-470 -521 -816 -563 -70 -9 -227 -9 -272 0 -19 3 -46 8 -60 10 -132 20 -313
100 -440 195 -227 169 -390 447 -425 723 -8 63 -8 212 0 262 41 269 131 452
310 630 157 158 318 245 545 296 78 17 334 20 410 4z"/>
</g>
</svg>
